<svg width="840" height="751" viewBox="0 0 840 751" fill="none" xmlns="http://www.w3.org/2000/svg">
<path d="M488.315 447.775H310.334L543.107 680.318H397.147C247.015 676.965 125.912 553.897 125.912 403.098C125.912 252.298 250.462 125.787 403.497 125.787C556.533 125.787 681.083 250.214 681.083 403.098C681.083 429.016 677.455 454.028 670.742 477.772L594.179 447.775L752.113 605.552C786.856 546.012 806.814 476.866 806.814 403.098C806.904 180.796 625.929 0 403.497 0C181.066 0 0 180.796 0 403.098C0 625.399 177.437 802.57 396.875 806.104H403.407H847L488.315 447.775Z" fill="#F2F2F2"/>
</svg>
