<svg preserveAspectRatio="none" width="100%" height="100%" overflow="visible" style="display: block;" viewBox="0 0 206.555 40.6998" fill="none" xmlns="http://www.w3.org/2000/svg">
<g id="Group">
<path id="Vector" d="M24.6303 22.6079H15.6531L27.394 34.3489H20.0319C12.4593 34.1796 6.35091 27.9659 6.35091 20.3522C6.35091 12.7384 12.6332 6.35091 20.3522 6.35091C28.0712 6.35091 34.3535 12.6332 34.3535 20.3522C34.3535 21.6608 34.1704 22.9237 33.8318 24.1225L29.9701 22.6079L37.9361 30.574C39.6886 27.5679 40.6952 24.0767 40.6952 20.3522C40.6998 9.12828 31.5715 0 20.3522 0C9.13286 0 0 9.12828 0 20.3522C0 31.5761 8.94983 40.5213 20.0182 40.6998H20.3476H42.7222L24.6303 22.6079Z" fill="var(--fill-0, #F2F2F2)"/>
<g id="Group_2">
<path id="Vector_2" d="M66.5381 14.2163C66.1446 13.8045 65.655 13.4156 65.0693 13.0541C64.3052 12.5874 63.4175 12.2076 62.3926 11.9102C61.3677 11.6174 60.2604 11.471 59.0616 11.471C57.149 11.471 55.4423 11.8508 53.9552 12.6149C52.4636 13.3744 51.2968 14.4268 50.4458 15.7629C49.5993 17.0989 49.1738 18.6409 49.1738 20.3796C49.1738 22.1184 49.5764 23.6329 50.3817 24.9827C51.187 26.3325 52.3218 27.3894 53.7905 28.149C55.2593 28.9085 56.9705 29.2929 58.9289 29.2929C60.0179 29.2929 61.052 29.1464 62.0311 28.8536C63.0103 28.5608 63.8842 28.1718 64.6575 27.696C65.4308 27.2155 66.0439 26.7077 66.5015 26.1632C66.5152 26.1494 66.5198 26.1357 66.5335 26.1174V34.8888H69.8966V11.8324H66.5335V14.2163H66.5381ZM65.774 23.3355C65.1746 24.2185 64.351 24.914 63.294 25.4265C62.237 25.939 61.0154 26.1952 59.6244 26.1952C58.2334 26.1952 57.0346 25.939 55.9685 25.4265C54.9024 24.914 54.0696 24.2185 53.4702 23.3355C52.8708 22.4524 52.5734 21.4686 52.5734 20.3796C52.5734 19.2906 52.8708 18.3069 53.4702 17.4238C54.0696 16.5453 54.9024 15.8544 55.9685 15.3511C57.0346 14.8523 58.2517 14.6007 59.6244 14.6007C60.9971 14.6007 62.2416 14.8523 63.294 15.3511C64.351 15.8498 65.1746 16.5407 65.774 17.4238C66.3734 18.3069 66.6708 19.2906 66.6708 20.3796C66.6708 21.4686 66.3734 22.4524 65.774 23.3355Z" fill="var(--fill-0, #F2F2F2)"/>
<path id="Vector_3" d="M87.4714 20.3156C87.4714 21.1849 87.3112 21.9765 87.0001 22.6812C86.6844 23.3904 86.2451 23.9943 85.6777 24.4931C85.1104 24.9918 84.4606 25.3762 83.7194 25.637C82.9781 25.8978 82.1866 26.0305 81.3355 26.0305C80.1367 26.0305 79.1438 25.7925 78.3477 25.3121C77.5515 24.8317 76.9658 24.1225 76.5861 23.1753C76.2063 22.2282 76.0141 21.0614 76.0141 19.6658V11.8325H72.6511V20.8418C72.6511 22.5851 72.9622 24.0904 73.5799 25.3624C74.2022 26.6345 75.0578 27.6091 76.156 28.2817C77.2541 28.9589 78.5215 29.2929 79.9583 29.2929C81.395 29.2929 82.667 29.0732 83.7743 28.6386C84.8862 28.2039 85.8104 27.6548 86.5471 26.9914C86.9086 26.6665 87.2151 26.337 87.4622 26.0122V28.968H90.8253V11.8325H87.4622V20.3202L87.4714 20.3156Z" fill="var(--fill-0, #F2F2F2)"/>
<path id="Vector_4" d="M110.953 14.2667C110.56 13.832 110.061 13.4248 109.452 13.0404C108.693 12.56 107.805 12.1802 106.794 11.8965C105.783 11.6128 104.676 11.471 103.481 11.471C101.569 11.471 99.8575 11.8508 98.3567 12.6149C96.8559 13.3744 95.6845 14.4268 94.8472 15.7629C94.0099 17.0989 93.5889 18.6409 93.5889 20.3796C93.5889 22.1184 93.987 23.6329 94.7786 24.9827C95.5747 26.3325 96.7003 27.3894 98.1553 28.149C99.6149 28.9085 101.308 29.2929 103.248 29.2929C104.337 29.2929 105.38 29.1464 106.382 28.8536C107.384 28.5608 108.267 28.1718 109.041 27.696C109.814 27.2155 110.432 26.7031 110.903 26.1449C110.921 26.122 110.935 26.0991 110.953 26.0808V28.968H114.316V11.8324H110.953V14.2667ZM110.203 23.3355C109.617 24.2185 108.789 24.914 107.723 25.4265C106.657 25.939 105.426 26.1952 104.035 26.1952C102.644 26.1952 101.45 25.939 100.397 25.4265C99.3404 24.914 98.5168 24.2185 97.9174 23.3355C97.318 22.4524 97.0206 21.4686 97.0206 20.3796C97.0206 19.2906 97.318 18.3115 97.9174 17.4421C98.5168 16.5727 99.3404 15.8818 100.397 15.3694C101.454 14.8569 102.667 14.6007 104.035 14.6007C105.403 14.6007 106.657 14.8569 107.723 15.3694C108.789 15.8818 109.617 16.5727 110.203 17.4421C110.789 18.3115 111.086 19.2906 111.086 20.3796C111.086 21.4686 110.793 22.4524 110.203 23.3355Z" fill="var(--fill-0, #F2F2F2)"/>
<path id="Vector_5" d="M131.639 12.4181C130.496 11.7867 129.068 11.471 127.348 11.471C126.085 11.471 124.927 11.7272 123.875 12.2397C122.818 12.7521 121.912 13.3927 121.148 14.166C120.887 14.4268 120.653 14.6922 120.429 14.9621V11.8324H117.066V28.968H120.429V19.6338C120.429 19.0664 120.58 18.4899 120.887 17.9042C121.189 17.3186 121.614 16.7741 122.159 16.2708C122.703 15.772 123.344 15.3694 124.085 15.0628C124.826 14.7608 125.632 14.6053 126.501 14.6053C127.48 14.5824 128.363 14.7608 129.146 15.1452C129.928 15.5249 130.55 16.0694 131.008 16.7787C131.466 17.4879 131.694 18.316 131.694 19.2769V28.968H135.057V18.7873C135.057 17.3964 134.774 16.1426 134.211 15.0354C133.644 13.9281 132.792 13.0541 131.649 12.4227L131.639 12.4181Z" fill="var(--fill-0, #F2F2F2)"/>
<path id="Vector_6" d="M144.913 6.67577H141.555V11.8325H136.43V15.0948H141.555V28.9634H144.913V15.0948H150.985V11.8325H144.913V6.67577Z" fill="var(--fill-0, #F2F2F2)"/>
<path id="Vector_7" d="M168.555 20.3156C168.555 21.1849 168.395 21.9765 168.084 22.6812C167.768 23.3904 167.329 23.9943 166.762 24.4931C166.194 24.9918 165.544 25.3762 164.803 25.637C164.062 25.8978 163.27 26.0305 162.419 26.0305C161.221 26.0305 160.228 25.7925 159.432 25.3121C158.635 24.8317 158.05 24.1225 157.67 23.1753C157.29 22.2282 157.098 21.0614 157.098 19.6658V11.8325H153.735V20.8418C153.735 22.5851 154.046 24.0904 154.664 25.3624C155.281 26.6345 156.142 27.6091 157.24 28.2817C158.338 28.9589 159.605 29.2929 161.042 29.2929C162.479 29.2929 163.751 29.0732 164.863 28.6386C165.97 28.2039 166.899 27.6548 167.636 26.9914C167.997 26.6665 168.304 26.337 168.551 26.0122V28.968H171.914V11.8325H168.551V20.3202L168.555 20.3156Z" fill="var(--fill-0, #F2F2F2)"/>
<path id="Vector_8" d="M205.887 15.1452C205.439 14.0242 204.702 13.1456 203.668 12.5005C202.634 11.8599 201.239 11.5396 199.472 11.5396C198.493 11.5396 197.564 11.6906 196.681 11.9972C195.798 12.3037 194.993 12.6789 194.265 13.1228C193.538 13.5712 192.916 14.047 192.403 14.5595C192.151 14.8112 191.923 15.0537 191.726 15.2824C191.543 14.7334 191.296 14.2438 190.966 13.8228C190.367 13.0633 189.589 12.4913 188.633 12.1116C187.677 11.7318 186.62 11.5396 185.467 11.5396C184.314 11.5396 183.284 11.6952 182.319 12.0109C181.349 12.3266 180.497 12.7293 179.756 13.2188C179.079 13.6673 178.516 14.1477 178.059 14.6602V11.8324H174.664V28.968H178.059V19.6979C178.059 19.1534 178.201 18.5814 178.484 17.9866C178.768 17.3872 179.175 16.8381 179.706 16.3394C180.237 15.8407 180.864 15.4334 181.582 15.1177C182.3 14.802 183.083 14.6464 183.934 14.6464C185.087 14.6464 186.029 14.8432 186.757 15.2321C187.484 15.6256 188.02 16.1747 188.354 16.8793C188.692 17.584 188.862 18.4076 188.862 19.341V28.968H192.257V20.2881C192.257 19.5057 192.421 18.7736 192.746 18.101C193.071 17.4284 193.538 16.829 194.151 16.3074C194.76 15.7858 195.46 15.3785 196.256 15.0857C197.047 14.7929 197.903 14.6464 198.818 14.6464C199.838 14.6464 200.671 14.8432 201.316 15.2321C201.957 15.6256 202.424 16.1793 202.721 16.8976C203.014 17.616 203.16 18.4533 203.16 19.4096V28.9726H206.555V18.9521C206.555 17.5382 206.331 16.2708 205.887 15.1497V15.1452Z" fill="var(--fill-0, #F2F2F2)"/>
</g>
</g>
</svg>
