<svg preserveAspectRatio="none" width="100%" height="100%" overflow="visible" style="display: block;" viewBox="0 0 1631 1553" fill="none" xmlns="http://www.w3.org/2000/svg">
<g id="Vector" opacity="0.1" style="mix-blend-mode:overlay">
<path d="M940.31 862.661H597.585L1045.82 1310.67H764.755C475.657 1304.21 242.458 1067.11 242.458 776.587C242.458 486.065 482.295 242.334 776.983 242.334C1071.67 242.334 1311.51 482.05 1311.51 776.587C1311.51 826.521 1304.52 874.708 1291.59 920.452L1144.16 862.661L1448.28 1166.63C1515.19 1051.92 1553.62 918.706 1553.62 776.587C1553.79 348.312 1205.3 0 776.983 0C348.664 0 0 348.312 0 776.587C0 1204.86 341.677 1546.19 764.231 1553H776.808H1631L940.31 862.661Z" fill="var(--fill-0, #F2F2F2)"/>
</g>
</svg>
