<svg width="199" height="457" viewBox="0 0 199 457" fill="none" xmlns="http://www.w3.org/2000/svg">
<path d="M276.155 253.855H175.502L307.141 385.689H224.597C139.693 383.788 71.2062 314.017 71.2062 228.526C71.2062 143.034 141.643 71.3115 228.188 71.3115C314.733 71.3115 385.17 141.852 385.17 228.526C385.17 243.22 383.118 257.4 379.322 270.861L336.023 253.855L425.339 343.302C444.987 309.548 456.274 270.347 456.274 228.526C456.325 102.497 353.979 0 228.188 0C102.397 0 0 102.497 0 228.526C0 354.554 100.345 454.996 224.443 457H228.137H479L276.155 253.855Z" fill="#F2F2F2"/>
</svg>
