<svg width="1325" height="384" viewBox="0 0 1325 384" fill="none" xmlns="http://www.w3.org/2000/svg">
<path d="M940.31 -306.339H597.585L1045.82 141.666H764.755C475.657 135.206 242.458 -101.891 242.458 -392.413C242.458 -682.935 482.295 -926.666 776.983 -926.666C1071.67 -926.666 1311.51 -686.95 1311.51 -392.413C1311.51 -342.479 1304.52 -294.292 1291.59 -248.548L1144.16 -306.339L1448.28 -2.37305C1515.19 -117.08 1553.62 -250.294 1553.62 -392.413C1553.79 -820.688 1205.3 -1169 776.983 -1169C348.664 -1169 0 -820.688 0 -392.413C0 35.8627 341.677 377.191 764.231 384H776.808H1631L940.31 -306.339Z" fill="#F2F2F2"/>
</svg>
