<svg width="420" height="456" viewBox="0 0 420 456" fill="none" xmlns="http://www.w3.org/2000/svg">
<g opacity="0.1" style="mix-blend-mode:overlay">
<path d="M256.338 317.179H130.469L295.086 481.9H191.863C85.6896 479.524 0.0448761 392.35 0.0448761 285.532C0.0448761 178.714 88.1274 89.1004 196.354 89.1004C304.581 89.1004 392.663 177.238 392.663 285.532C392.663 303.891 390.097 321.609 385.35 338.427L331.205 317.179L442.896 428.94C467.466 386.765 481.58 337.785 481.58 285.532C481.644 128.066 353.658 0 196.354 0C39.0501 0 -89 128.066 -89 285.532C-89 442.998 36.484 568.496 191.671 571H196.29H510L256.338 317.179Z" fill="#F2F2F2"/>
</g>
</svg>
