<svg width="44" height="53" viewBox="0 0 44 53" fill="none" xmlns="http://www.w3.org/2000/svg">
<path d="M21.6672 25.4338C25.1573 25.4338 28.1795 24.1806 30.6488 21.708C33.1181 19.2359 34.3698 16.211 34.3698 12.7165C34.3698 9.22317 33.1181 6.19793 30.6484 3.72496C28.1787 1.2532 25.1569 0 21.6672 0C18.1767 0 15.1554 1.2532 12.6861 3.72536C10.2168 6.19752 8.96465 9.22277 8.96465 12.7165C8.96465 16.211 10.2168 19.2363 12.6865 21.7085C15.1562 24.1802 18.178 25.4338 21.6672 25.4338Z" fill="#262626"/>
<path d="M43.8934 40.6003C43.8222 39.5715 43.6781 38.4492 43.4661 37.2641C43.252 36.0701 42.9764 34.9414 42.6465 33.9097C42.3056 32.8434 41.8421 31.7905 41.2692 30.7814C40.6745 29.734 39.976 28.822 39.1922 28.0715C38.3726 27.2864 37.3691 26.6552 36.2086 26.1948C35.0522 25.7367 33.7707 25.5047 32.3999 25.5047C31.8615 25.5047 31.3409 25.7259 30.3354 26.3813C29.7165 26.7853 28.9927 27.2526 28.1847 27.7694C27.4939 28.2101 26.558 28.623 25.402 28.9968C24.2742 29.3622 23.129 29.5475 21.9988 29.5475C20.8686 29.5475 19.7238 29.3622 18.5948 28.9968C17.44 28.6234 16.5041 28.2105 15.8141 27.7698C15.0138 27.2578 14.2895 26.7905 13.6614 26.3809C12.6571 25.7255 12.1361 25.5043 11.5977 25.5043C10.2265 25.5043 8.94533 25.7367 7.78934 26.1952C6.62973 26.6548 5.62584 27.286 4.80542 28.0719C4.02202 28.8228 3.32312 29.7344 2.72923 30.7814C2.15667 31.7905 1.69314 32.843 1.35194 33.9101C1.0224 34.9418 0.746786 36.0701 0.532729 37.2641C0.320683 38.4476 0.176637 39.5703 0.105419 40.6015C0.0354079 41.6118 0 42.6604 0 43.7194C0 46.4756 0.875139 48.7069 2.60087 50.3524C4.30528 51.9762 6.56053 52.8 9.30303 52.8H34.697C37.4395 52.8 39.6939 51.9766 41.3987 50.3524C43.1249 48.7081 44 46.4764 44 43.719C43.9996 42.6552 43.9638 41.6058 43.8934 40.6003Z" fill="#262626"/>
</svg>
