<svg width="1708" height="1052" viewBox="-77 0 1708 1052" fill="none" xmlns="http://www.w3.org/2000/svg">
<path d="M940.31 660.661H597.585L1045.82 1108.67H764.755C475.657 1102.21 242.458 865.109 242.458 574.587C242.458 284.065 482.295 40.3344 776.983 40.3344C1071.67 40.3344 1311.51 280.05 1311.51 574.587C1311.51 624.521 1304.52 672.708 1291.59 718.452L1144.16 660.661L1448.28 964.627C1515.19 849.92 1553.62 716.706 1553.62 574.587C1553.79 146.312 1205.3 -202 776.983 -202C348.664 -202 0 146.312 0 574.587C0 1002.86 341.677 1344.19 764.231 1351H776.808H1631L940.31 660.661Z" fill="#262626"/>
</svg>
