<svg width="420" height="914" viewBox="0 0 420 914" fill="none" xmlns="http://www.w3.org/2000/svg">
<path d="M311.079 468.147H89.8105L379.197 757.489H197.738C11.0921 753.317 -139.465 600.189 -139.465 412.556C-139.465 224.924 15.3776 67.5108 205.633 67.5108C395.888 67.5108 550.731 222.33 550.731 412.556C550.731 444.806 546.22 475.927 537.874 505.471L442.69 468.147L639.035 664.462C682.229 590.379 707.04 504.343 707.04 412.556C707.153 135.956 482.162 -89 205.633 -89C-70.8969 -89 -296 135.956 -296 412.556C-296 689.157 -75.408 909.602 197.4 914H205.52H757L311.079 468.147Z" fill="#262626"/>
</svg>
